<?xml version="1.0" standalone="no"?>
<!DOCTYPE svg PUBLIC "-//W3C//DTD SVG 20010904//EN"
 "http://www.w3.org/TR/2001/REC-SVG-20010904/DTD/svg10.dtd">
<svg version="1.0" xmlns="http://www.w3.org/2000/svg"
 width="260.000000pt" height="260.000000pt" viewBox="0 0 260.000000 260.000000"
 preserveAspectRatio="xMidYMid meet">
<metadata>
Created by potrace 1.14, written by Peter Selinger 2001-2017
</metadata>
<g transform="translate(0.000000,260.000000) scale(0.100000,-0.100000)"
fill="#000000" stroke="none">
<path d="M1814 2581 c5 -7 -3 -11 -23 -11 -43 0 -44 0 -60 -13 -12 -10 -13 -9
-6 3 8 13 7 13 -10 0 -10 -8 -20 -14 -22 -12 -1 1 -4 2 -5 1 -2 0 -10 -2 -18
-4 -8 -1 -45 -16 -83 -33 -37 -17 -70 -31 -72 -32 -2 0 -17 -12 -31 -25 -15
-14 -29 -23 -31 -21 -4 4 -12 -1 -67 -51 -14 -13 -27 -23 -30 -23 -15 0 -256
-238 -256 -252 0 -5 -5 -6 -10 -3 -6 4 -9 3 -8 -2 3 -8 -51 -86 -64 -91 -5 -2
-8 -10 -8 -18 0 -8 -5 -14 -11 -14 -5 0 -7 -5 -4 -10 3 -6 -1 -13 -9 -16 -9
-3 -14 -9 -11 -14 2 -4 -3 -16 -13 -26 -9 -10 -19 -28 -20 -39 -2 -11 -9 -23
-15 -27 -7 -4 -8 -8 -3 -8 5 0 3 -7 -4 -15 -7 -8 -10 -15 -6 -15 4 0 0 -13 -9
-30 -8 -16 -15 -32 -15 -35 1 -28 -4 -34 -32 -41 -47 -11 -47 -11 -55 -14 -5
-1 -11 -2 -15 -1 -5 0 -8 -4 -8 -11 0 -6 -3 -9 -6 -5 -4 3 -26 -5 -50 -18 -24
-14 -44 -22 -44 -20 0 3 -9 -3 -20 -13 -12 -9 -24 -17 -29 -17 -4 0 -15 -8
-25 -17 -10 -10 -20 -18 -24 -18 -4 0 -22 -14 -39 -31 -18 -16 -33 -28 -33
-25 0 7 -96 -82 -185 -171 -45 -46 -80 -85 -77 -88 3 -2 -3 -7 -12 -11 -9 -3
-16 -12 -16 -19 0 -7 -7 -16 -16 -19 -8 -3 -12 -10 -9 -16 3 -5 2 -10 -4 -10
-11 0 -57 -71 -53 -82 1 -5 -2 -8 -6 -8 -7 0 -30 -37 -37 -60 -4 -10 -37 -85
-43 -94 -3 -5 1 -6 9 -1 11 7 12 6 3 -6 -15 -18 -35 -97 -38 -149 -1 -14 -5
-31 -9 -37 -5 -8 -3 -13 5 -13 10 0 10 -2 -1 -9 -11 -7 -11 -9 0 -13 12 -4 12
-7 0 -21 -10 -13 -10 -17 -1 -17 7 0 10 -6 7 -14 -3 -7 -1 -33 5 -57 5 -24 11
-48 12 -54 1 -5 6 -16 10 -24 7 -10 5 -12 -3 -6 -9 5 -10 3 -2 -11 16 -29 54
-117 57 -133 1 -8 6 -17 11 -20 4 -3 23 -28 42 -54 18 -27 52 -67 75 -90 45
-45 152 -117 173 -117 7 0 13 -4 13 -10 0 -5 9 -10 19 -10 11 0 23 -5 26 -10
4 -6 10 -8 15 -5 5 3 11 1 15 -4 3 -6 12 -8 20 -4 8 3 15 1 15 -4 0 -10 2 -10
58 -14 17 -1 32 -6 32 -12 0 -5 7 -4 15 3 8 7 15 8 15 3 0 -10 61 -10 77 0 7
4 14 3 18 -3 3 -5 11 -10 16 -10 6 0 8 4 5 8 -2 4 7 8 22 7 24 -1 59 5 117 21
11 3 25 6 30 7 6 2 16 6 23 10 6 5 12 5 12 0 0 -4 4 -3 8 4 4 6 16 13 27 15
11 1 26 9 33 16 8 7 17 10 22 7 4 -3 11 2 14 11 3 8 10 12 16 9 5 -3 10 -1 10
4 0 6 6 11 14 11 8 0 17 7 20 16 3 8 10 12 16 9 5 -3 10 -1 10 4 0 6 5 11 11
11 7 0 20 10 30 22 11 11 19 18 19 15 0 -4 16 9 35 29 19 19 35 31 35 28 0 -4
12 6 28 22 15 17 40 40 56 52 16 12 26 22 23 22 -3 0 20 26 51 58 31 33 68 73
82 91 14 18 31 39 38 47 7 8 10 14 5 14 -4 0 -3 4 2 8 15 10 50 66 47 75 -1 4
2 7 6 7 5 0 16 19 26 43 9 23 22 50 27 61 6 10 13 28 15 40 3 11 6 26 7 31 9
36 35 54 85 57 6 1 12 6 12 11 0 6 3 8 6 4 4 -3 19 0 34 8 15 8 30 11 33 8 4
-3 9 2 13 11 3 9 10 14 14 11 5 -3 15 2 23 10 9 8 20 15 25 15 5 0 22 11 38
25 15 13 30 22 33 20 2 -3 11 3 20 13 9 9 39 35 66 57 57 45 253 240 275 274
14 21 34 48 60 78 5 7 10 15 10 19 0 3 9 18 20 34 11 15 17 30 13 34 -3 3 -1
6 5 6 7 0 11 6 9 13 -1 6 3 11 8 10 6 -1 11 6 12 15 1 9 7 31 14 47 7 17 14
39 16 50 2 11 6 27 10 35 3 8 8 33 10 55 2 21 9 43 16 47 9 6 9 8 -2 8 -11 0
-11 3 -1 15 8 10 9 15 1 15 -7 0 -8 8 0 27 5 14 6 29 2 32 -4 3 -9 24 -9 46
-2 48 -7 76 -17 92 -4 6 -1 14 5 16 10 4 10 6 0 6 -7 1 -10 6 -7 11 3 6 1 10
-5 10 -6 0 -9 3 -7 8 3 4 -3 24 -13 45 -10 21 -13 35 -7 31 7 -3 4 1 -7 10
-10 8 -15 19 -11 25 3 6 1 11 -4 11 -6 0 -11 6 -11 14 0 8 -3 16 -7 18 -5 2
-21 23 -38 47 -34 52 -91 111 -105 111 -6 0 -10 7 -10 15 0 14 -12 19 -32 16
-5 0 -8 6 -8 15 0 8 -4 13 -9 10 -5 -3 -14 1 -21 9 -7 8 -18 15 -25 15 -8 0
-15 5 -17 10 -2 6 -13 12 -26 13 -12 0 -22 4 -22 8 0 6 -8 9 -45 18 -5 2 -16
8 -24 14 -12 10 -13 9 -6 -3 7 -12 6 -13 -7 -3 -8 7 -18 10 -21 6 -4 -3 -7 -1
-7 5 0 6 -8 11 -17 11 -35 1 -106 10 -111 15 -2 3 -13 1 -23 -4 -12 -7 -19 -6
-21 2 -3 8 -9 8 -24 0 -13 -7 -25 -7 -38 0 -14 8 -17 7 -12 -1z m171 -296 c17
-4 38 -7 47 -8 9 -1 15 -4 12 -8 -3 -6 32 -22 47 -21 3 1 23 -15 44 -34 21
-19 42 -34 47 -34 4 0 8 -6 8 -14 0 -8 7 -16 15 -20 8 -3 20 -17 25 -31 5 -14
14 -25 20 -25 6 0 8 -5 4 -11 -3 -6 -2 -14 4 -18 5 -3 12 -17 13 -31 2 -14 8
-28 12 -31 11 -8 17 -189 7 -189 -4 0 -7 -6 -7 -12 2 -27 -16 -88 -26 -88 -6
0 -8 -3 -4 -6 8 -8 -33 -84 -46 -84 -6 0 -7 -3 -4 -6 6 -7 -28 -55 -72 -100
-11 -12 -17 -25 -14 -28 4 -3 -2 -6 -12 -6 -10 0 -15 -3 -12 -6 4 -4 -10 -20
-30 -35 -20 -16 -33 -29 -30 -29 4 0 -4 -10 -16 -23 -12 -13 -25 -22 -29 -20
-4 2 -10 -2 -15 -9 -4 -8 -33 -33 -63 -58 -30 -25 -59 -50 -63 -58 -5 -7 -12
-10 -16 -7 -5 2 -14 -2 -21 -10 -7 -8 -16 -12 -21 -9 -5 3 -9 0 -9 -7 0 -7 -3
-10 -6 -6 -4 3 -13 0 -20 -8 -25 -24 -51 -2 -45 38 0 4 -4 7 -10 7 -5 0 -7 5
-4 10 4 6 2 16 -3 23 -6 7 -11 15 -11 20 -2 18 -33 83 -48 99 -9 10 -12 18 -7
18 5 0 4 4 -1 8 -6 4 -21 21 -33 39 -31 44 -104 118 -125 126 -9 3 -17 11 -17
17 0 5 -7 10 -15 10 -8 0 -15 5 -15 11 0 5 -4 8 -8 5 -5 -3 -18 4 -30 14 -12
11 -28 20 -36 20 -8 0 -22 7 -31 16 -9 9 -19 14 -22 11 -3 -4 -18 0 -34 9 -16
8 -29 12 -29 8 0 -3 -8 4 -19 17 -18 23 -18 24 8 64 57 89 110 154 194 237 48
47 87 85 87 83 0 -2 12 7 28 22 15 14 47 39 72 56 25 17 47 35 48 39 2 4 8 6
13 2 5 -3 9 0 9 6 0 6 5 8 10 5 6 -3 10 -2 10 4 0 5 14 12 30 16 17 4 30 10
30 15 0 5 9 7 20 5 11 -2 22 0 24 4 3 4 22 8 42 9 21 2 39 4 41 5 4 5 77 -1
108 -8z m-775 -576 c0 -6 -4 -7 -10 -4 -5 3 -10 11 -10 16 0 6 5 7 10 4 6 -3
10 -11 10 -16z m44 -319 c8 0 19 -9 83 -69 27 -25 42 -41 34 -36 -8 5 -3 -7
12 -27 15 -19 27 -42 27 -51 0 -10 5 -17 12 -17 15 0 1 -13 -17 -16 -8 -1 -15
2 -15 7 0 6 -13 15 -30 20 -16 6 -30 15 -30 20 0 5 -5 9 -10 9 -24 0 -136 139
-113 140 5 0 1 5 -9 10 -13 8 -16 20 -9 48 1 2 14 -6 30 -17 16 -12 32 -21 35
-21z m-358 -7 c6 -45 16 -78 25 -81 5 -2 9 -10 9 -18 0 -7 10 -30 22 -51 12
-21 29 -52 39 -70 9 -18 19 -30 22 -26 4 3 10 -2 13 -12 7 -18 74 -92 74 -81
0 3 14 -8 30 -26 17 -17 30 -28 30 -24 0 4 10 -2 22 -13 11 -11 24 -18 28 -16
5 3 11 -2 14 -11 3 -8 10 -13 15 -10 5 4 11 1 13 -4 2 -6 13 -12 26 -13 12 0
22 -5 22 -9 0 -4 9 -8 20 -8 11 0 20 -4 20 -8 0 -4 9 -9 20 -10 69 -6 70 -4
-16 -137 -17 -27 -48 -67 -68 -88 -19 -21 -35 -40 -36 -42 0 -3 -3 -5 -6 -4
-4 0 -15 -12 -25 -28 -10 -15 -19 -25 -19 -21 0 4 -20 -12 -44 -35 -80 -77
-110 -102 -118 -100 -4 2 -8 -1 -8 -6 0 -9 -71 -55 -79 -51 -2 1 -7 -4 -12
-12 -5 -7 -12 -13 -16 -14 -17 -2 -48 -18 -55 -28 -5 -7 -8 -6 -8 3 0 11 -5 9
-22 -5 -13 -12 -18 -13 -13 -4 8 13 7 13 -8 1 -28 -22 -180 -17 -240 7 -16 7
-33 12 -38 12 -5 0 -9 5 -9 11 0 5 -4 8 -9 4 -6 -3 -14 3 -20 12 -5 10 -12 15
-16 12 -6 -6 -49 34 -85 78 -22 27 -59 97 -63 119 -2 10 -9 30 -14 44 -8 18
-7 27 1 32 8 6 8 8 -1 8 -7 0 -10 7 -7 15 4 8 0 23 -7 32 -8 9 -9 14 -3 10 8
-4 12 10 13 45 0 28 6 57 12 64 6 7 8 18 4 24 -3 5 -1 10 5 10 6 0 8 5 5 10
-3 6 -2 10 4 10 5 0 8 9 6 20 -2 11 0 20 4 20 4 0 14 12 22 28 8 15 20 33 27
40 7 8 10 18 7 23 -4 5 1 9 9 9 8 0 18 5 22 12 5 7 2 8 -7 3 -35 -20 165 183
245 250 27 22 54 45 60 51 6 6 18 9 26 6 8 -3 12 -1 7 3 -6 7 67 59 85 60 3 0
10 3 14 8 10 10 27 -8 30 -30z"/>
</g>
</svg>
